<svg xmlns="http://www.w3.org/2000/svg" width="32.569" height="32.569" viewBox="0 0 32.569 32.569">
    <defs>
        <style>
            .cls-1{fill:#0077b7}
        </style>
    </defs>
    <path id="linkedin" d="M29.623 0H2.946A2.946 2.946 0 0 0 0 2.946v26.676a2.946 2.946 0 0 0 2.946 2.946h26.676a2.946 2.946 0 0 0 2.946-2.946V2.946A2.946 2.946 0 0 0 29.623 0zM10.078 28.122a.857.857 0 0 1-.857.857h-3.65a.857.857 0 0 1-.857-.857v-15.3a.857.857 0 0 1 .857-.857h3.65a.857.857 0 0 1 .857.857zM7.4 10.524a3.467 3.467 0 1 1 3.467-3.467A3.467 3.467 0 0 1 7.4 10.524zm21.751 17.667a.788.788 0 0 1-.788.788h-3.917a.788.788 0 0 1-.788-.788v-7.176c0-1.071.314-4.691-2.8-4.691-2.414 0-2.9 2.478-3 3.59v8.277a.788.788 0 0 1-.788.788h-3.787a.788.788 0 0 1-.788-.788V12.754a.788.788 0 0 1 .788-.788h3.787a.788.788 0 0 1 .788.788v1.335c.895-1.343 2.225-2.38 5.057-2.38 6.271 0 6.235 5.859 6.235 9.078v7.4z" class="cls-1"/>
</svg>
