<svg xmlns="http://www.w3.org/2000/svg" width="36.087" height="33.833" viewBox="0 0 36.087 33.833">
    <defs>
        <style>
            .cls-1{fill:#1976d2}.cls-2{fill:#2196f3}.cls-3{fill:#fafafa}
        </style>
    </defs>
    <g id="outlook" transform="translate(0 -15.989)">
        <path id="Path_10323" d="M272.916 112.011h-15.788a1.128 1.128 0 1 0 0 2.255h12.5l-6.929 5.388-4.969-3.16-1.209 1.9 5.639 3.586a1.129 1.129 0 0 0 1.3-.061l8.329-6.48v14.611h-14.66a1.128 1.128 0 1 0 0 2.255h15.788a1.128 1.128 0 0 0 1.128-1.128v-18.038a1.128 1.128 0 0 0-1.129-1.128z" class="cls-1" data-name="Path 10323" transform="translate(-237.957 -89.254)"/>
        <path id="Path_10324" d="M19.891 16.25a1.108 1.108 0 0 0-.927-.239L.92 19.394A1.125 1.125 0 0 0 0 20.5v24.81a1.126 1.126 0 0 0 .92 1.107L18.964 49.8a1.061 1.061 0 0 0 .207.02 1.128 1.128 0 0 0 1.129-1.125V17.119a1.125 1.125 0 0 0-.409-.869z" class="cls-2" data-name="Path 10324"/>
        <path id="Path_10325" d="M69.639 189.544c-3.108 0-5.639-3.036-5.639-6.766s2.531-6.766 5.639-6.766 5.639 3.036 5.639 6.766-2.531 6.766-5.639 6.766zm0-11.277c-1.865 0-3.383 2.023-3.383 4.511s1.518 4.511 3.383 4.511 3.383-2.023 3.383-4.511-1.522-4.512-3.383-4.512z" class="cls-3" data-name="Path 10325" transform="translate(-59.489 -148.743)"/>
    </g>
</svg>
